<svg width="126" height="66" viewBox="0 0 126 66" fill="none" xmlns="http://www.w3.org/2000/svg">
<path d="M37.0395 22.7754L26.4948 51.1511L22.2415 27.0176C21.7098 24.2837 19.7603 22.7754 17.545 22.7754H0.265841L0 24.0009C3.54451 24.8493 7.53202 26.1691 10.0131 27.5832C11.5195 28.4316 11.9625 29.1859 12.4056 31.2598L20.4693 64.5378H31.2798L47.7612 22.7754H37.0395Z" fill="white"/>
<path d="M52.1026 22.7754L43.6846 64.5378H53.8749L62.2041 22.7754H52.1026Z" fill="white"/>
<path d="M75.5861 34.3708C75.5861 32.8625 77.0038 31.2599 79.928 30.8828C81.3457 30.6942 85.4218 30.5057 89.9414 32.7682L91.7136 23.9067C89.2322 22.964 86.131 22.0212 82.2318 22.0212C72.2191 22.0212 65.13 27.6776 65.0418 35.8792C64.953 41.9124 70.0923 45.2123 73.9026 47.1918C77.8899 49.2657 79.2195 50.4911 79.1307 52.3768C79.1307 55.2047 75.9407 56.4302 73.1053 56.4302C67.9654 56.5246 65.0418 54.9221 62.6492 53.7911L60.7881 62.935C63.1807 64.0661 67.5226 65.1033 72.0415 65.1033C82.6752 65.1033 89.6756 59.5413 89.6756 50.7744C89.8525 39.9329 75.4979 39.273 75.5861 34.3708Z" fill="white"/>
<path fill-rule="evenodd" clip-rule="evenodd" d="M104.472 25.7912C105.18 24 106.864 22.7745 108.814 22.7745V22.6802H117.498L125.65 64.4426H116.257L115.016 58.2203H101.99L99.8635 64.4426H89.2305L104.472 25.7912ZM110.321 34.0868L104.915 49.736H113.333L110.321 34.0868Z" fill="white"/>
<path fill-rule="evenodd" clip-rule="evenodd" d="M114.43 7.64623C113.92 7.64623 113.464 7.74234 113.062 7.93222C112.66 8.12366 112.321 8.38206 112.043 8.70427C111.766 9.02808 111.551 9.40703 111.401 9.84426C111.252 10.2807 111.176 10.7439 111.176 11.2356C111.176 11.7264 111.252 12.1904 111.401 12.6261C111.551 13.0625 111.766 13.443 112.043 13.7661C112.321 14.0898 112.66 14.3467 113.062 14.5381C113.464 14.7288 113.92 14.8241 114.43 14.8241C114.918 14.8241 115.362 14.7327 115.76 14.5499C116.157 14.3664 116.499 14.1151 116.785 13.7952C117.07 13.4761 117.292 13.098 117.449 12.6615C117.607 12.2251 117.686 11.7492 117.686 11.2356C117.686 10.7203 117.607 10.2453 117.449 9.8088C117.292 9.37156 117.07 8.99419 116.785 8.67433C116.499 8.35607 116.157 8.10394 115.76 7.92118C115.362 7.73839 114.918 7.64623 114.43 7.64623ZM114.151 5.34303C114.924 5.34303 115.588 5.49352 116.144 5.79287C116.7 6.09304 117.165 6.49248 117.541 6.99116V0H119.894V16.8343H117.541V15.4902C117.165 15.9889 116.7 16.386 116.144 16.6822C115.588 16.9792 114.924 17.1273 114.151 17.1273C113.392 17.1273 112.686 16.9808 112.034 16.6893C111.38 16.3962 110.809 15.9889 110.322 15.4666C109.834 14.945 109.451 14.3235 109.173 13.6026C108.895 12.8809 108.756 12.0923 108.756 11.2352C108.756 10.3772 108.895 9.58785 109.173 8.86776C109.451 8.14692 109.834 7.52454 110.322 7.00298C110.809 6.48066 111.38 6.07413 112.034 5.78108C112.686 5.48957 113.392 5.34303 114.151 5.34303ZM106.423 5.34342C106.784 5.34342 107.109 5.36863 107.396 5.41984C107.687 5.47027 107.966 5.54983 108.236 5.65855L107.673 8.07876C107.426 7.94639 107.137 7.84476 106.807 7.77545C106.476 7.70534 106.167 7.67066 105.882 7.67066C105.507 7.67066 105.162 7.73604 104.847 7.86919C104.531 8.00155 104.261 8.19613 104.036 8.45375C103.811 8.71058 103.634 9.02573 103.506 9.40072C103.379 9.77414 103.315 10.1996 103.315 10.6746V16.8354H100.962V5.63571H103.293V6.8986C103.653 6.36051 104.1 5.96737 104.633 5.71763C105.166 5.4687 105.762 5.34342 106.423 5.34342ZM92.0301 7.64623C91.5201 7.64623 91.0638 7.74234 90.6624 7.93222C90.2601 8.12366 89.9209 8.38206 89.6439 8.70427C89.3661 9.02808 89.1506 9.40703 89.0012 9.84426C88.8515 10.2807 88.7758 10.7439 88.7758 11.2356C88.7758 11.7264 88.8515 12.1904 89.0012 12.6261C89.1514 13.0625 89.3661 13.443 89.6439 13.7661C89.9209 14.0898 90.2601 14.3467 90.6624 14.5381C91.0638 14.7288 91.5201 14.8241 92.0301 14.8241C92.5181 14.8241 92.9613 14.7327 93.3596 14.5499C93.7574 14.3664 94.0988 14.1151 94.3842 13.7952C94.6696 13.4761 94.8913 13.098 95.0491 12.6615C95.2078 12.2251 95.2852 11.7492 95.2852 11.2356C95.2852 10.7203 95.2078 10.2453 95.0491 9.8088C94.8913 9.37156 94.6696 8.99419 94.3842 8.67433C94.0988 8.35607 93.7582 8.10394 93.3596 7.92118C92.9613 7.73839 92.5181 7.64623 92.0301 7.64623ZM97.493 16.8344H95.1386V15.4904C94.7638 15.9891 94.2984 16.3861 93.7428 16.6823C93.1867 16.9793 92.5226 17.1275 91.7483 17.1275C90.9901 17.1275 90.285 16.9809 89.6316 16.6894C88.979 16.3964 88.4083 15.9891 87.9194 15.4667C87.4314 14.9452 87.049 14.3236 86.7718 13.6027C86.4934 12.8811 86.3544 12.0925 86.3544 11.2353C86.3544 10.3774 86.4934 9.58797 86.7718 8.8679C87.049 8.14703 87.4314 7.52465 87.9194 7.00312C88.4083 6.48077 88.979 6.07427 89.6316 5.78119C90.285 5.48892 90.9901 5.34238 91.7483 5.34238C92.5226 5.34238 93.1867 5.49363 93.7428 5.79301C94.2984 6.09318 94.7638 6.4926 95.1386 6.99051V5.63546H97.493V16.8344ZM80.915 5.34342C81.7262 5.34342 82.4806 5.49391 83.1789 5.79326C83.8772 6.09343 84.4661 6.54014 84.9463 7.13257L83.4368 8.80434C83.0544 8.42935 82.6575 8.14336 82.2454 7.94404C81.8308 7.74629 81.3657 7.64623 80.8474 7.64623C80.3981 7.64623 79.9776 7.73369 79.5865 7.90936C79.1958 8.08428 78.858 8.32928 78.5726 8.64598C78.2881 8.96192 78.0641 9.33929 77.9032 9.77966C77.7409 10.2201 77.6613 10.7046 77.6613 11.2356C77.6613 11.7658 77.7409 12.2503 77.9032 12.6907C78.0641 13.1303 78.2881 13.5084 78.5726 13.8251C78.858 14.1403 79.1958 14.3861 79.5865 14.5602C79.9776 14.7367 80.3981 14.8241 80.8474 14.8241C81.3657 14.8241 81.849 14.713 82.3001 14.4909C82.7508 14.2687 83.1492 13.9906 83.4937 13.6542L84.9463 15.3386C84.4524 15.9318 83.8581 16.3769 83.1691 16.6763C82.4761 16.9772 81.7268 17.1277 80.9155 17.1277C80.0603 17.1277 79.2824 16.9772 78.5849 16.6763C77.8867 16.3769 77.2893 15.9641 76.7937 15.4378C76.2989 14.9116 75.9157 14.29 75.6455 13.573C75.3752 12.8561 75.2393 12.077 75.2393 11.2356C75.2393 10.3934 75.3752 9.61421 75.6455 8.8965C75.9157 8.18039 76.2989 7.5588 76.7937 7.03253C77.2893 6.50624 77.8867 6.09343 78.5849 5.79326C79.2815 5.49391 80.0594 5.34342 80.915 5.34342ZM72.8624 5.34342C73.2238 5.34342 73.5487 5.36863 73.8377 5.41984C74.127 5.47027 74.4062 5.54983 74.6764 5.65855L74.1132 8.07876C73.8657 7.94639 73.5767 7.84476 73.2456 7.77545C72.9157 7.70534 72.6073 7.67066 72.3237 7.67066C71.9472 7.67066 71.6018 7.73604 71.2862 7.86919C70.9705 8.00155 70.7009 8.19613 70.4755 8.45375C70.2501 8.71058 70.0741 9.02573 69.9465 9.40072C69.819 9.77414 69.7553 10.1996 69.7553 10.6746V16.8354H67.4018V5.63571H69.7326V6.8986C70.0931 6.36051 70.54 5.96737 71.0729 5.71763C71.6049 5.4687 72.2014 5.34342 72.8624 5.34342ZM59.5642 7.51742C59.1437 7.51742 58.7703 7.58359 58.4435 7.71593C58.1169 7.84907 57.8355 8.03738 57.5994 8.28317C57.3626 8.52897 57.1691 8.82048 57.0189 9.16003C56.8686 9.4988 56.7638 9.87144 56.703 10.2764H62.301C62.1737 9.40347 61.8738 8.72515 61.4003 8.24222C60.9266 7.75926 60.3149 7.51742 59.5642 7.51742ZM59.6088 5.34342C60.3595 5.34342 61.0494 5.48523 61.6753 5.77043C62.3024 6.05404 62.8389 6.45584 63.2858 6.97424C63.7329 7.4926 64.0813 8.11263 64.3333 8.83269C64.5845 9.55435 64.7112 10.3508 64.7112 11.2246C64.7112 11.3797 64.7067 11.5357 64.6997 11.6917C64.6922 11.8477 64.6793 11.9958 64.6664 12.1353H56.692C56.7672 12.6418 56.9062 13.0751 57.1089 13.4336C57.3113 13.7921 57.5557 14.0859 57.8405 14.316C58.1259 14.5452 58.4452 14.7154 58.7981 14.8241C59.151 14.9344 59.5185 14.988 59.9017 14.988C60.4422 14.988 60.9846 14.8848 61.529 14.6784C62.0739 14.472 62.571 14.182 63.0209 13.8078L64.1929 15.5489C63.5325 16.1335 62.8319 16.5431 62.0922 16.7764C61.3521 17.0103 60.5734 17.1277 59.7551 17.1277C58.9447 17.1277 58.201 16.9867 57.5254 16.7062C56.8499 16.4265 56.2679 16.0287 55.7799 15.5143C55.2918 14.999 54.9123 14.3806 54.642 13.655C54.3726 12.931 54.237 12.1242 54.237 11.2364C54.237 10.3627 54.3682 9.56382 54.6308 8.83899C54.894 8.11498 55.2621 7.49341 55.735 6.97502C56.2079 6.45584 56.7725 6.05483 57.4298 5.77043C58.0864 5.48523 58.8132 5.34342 59.6088 5.34342ZM52.3678 7.85636H48.2344V12.7322C48.2344 13.1049 48.2801 13.4247 48.3695 13.6902C48.4598 13.9549 48.582 14.1716 48.7354 14.3394C48.8895 14.5064 49.0701 14.6293 49.2758 14.7073C49.4821 14.7853 49.7053 14.8239 49.9466 14.8239C50.3147 14.8239 50.6875 14.7506 51.0668 14.6017C51.4463 14.4536 51.797 14.2748 52.1202 14.0644L53.0546 16.0167C52.6189 16.32 52.1295 16.5815 51.5854 16.7998C51.0404 17.018 50.4271 17.1275 49.7434 17.1275C48.5198 17.1275 47.5672 16.7753 46.8889 16.0695C46.2088 15.3636 45.8696 14.2677 45.8696 12.7787V7.85636H43.7187V5.63549H45.8696V2.24547H48.2344V5.63549H52.3678V7.85636ZM41.1947 8.44078C41.0301 8.33996 40.8275 8.2328 40.5867 8.11935C40.347 8.00671 40.0798 7.90429 39.7869 7.80974C39.494 7.71677 39.1842 7.63878 38.8579 7.57656C38.5316 7.51431 38.1991 7.4828 37.8614 7.4828C37.2155 7.4828 36.7146 7.60569 36.358 7.8507C36.0011 8.09573 35.8229 8.41795 35.8229 8.8158C35.8229 9.01038 35.8699 9.17348 35.9633 9.30581C36.058 9.43896 36.1833 9.54847 36.3403 9.63357C36.499 9.72022 36.6857 9.78798 36.9035 9.83838C37.1213 9.88959 37.3545 9.93371 37.6026 9.97231L38.7166 10.148C39.8954 10.3269 40.8151 10.6837 41.4764 11.2179C42.1374 11.7512 42.4676 12.4981 42.4676 13.4561C42.4676 13.9942 42.3566 14.4874 42.1352 14.9348C41.9134 15.3831 41.5947 15.7699 41.1781 16.0921C40.7613 16.416 40.2469 16.6673 39.635 16.8469C39.0233 17.0257 38.3298 17.1148 37.5569 17.1148C37.2794 17.1148 36.9559 17.0982 36.5887 17.0628C36.2206 17.0273 35.8304 16.9572 35.4183 16.8532C35.0046 16.7476 34.5841 16.6011 34.1561 16.4144C33.7288 16.2277 33.3182 15.9811 32.9291 15.6778L34.0212 13.8421C34.216 13.9981 34.428 14.1439 34.657 14.2801C34.8863 14.4165 35.145 14.5378 35.4343 14.6426C35.7233 14.7481 36.0429 14.8324 36.3913 14.8939C36.7412 14.9561 37.1373 14.9876 37.5799 14.9876C38.3912 14.9876 39.0028 14.8647 39.4157 14.6197C39.8287 14.3747 40.035 14.0414 40.035 13.6199C40.035 13.3009 39.8847 13.0378 39.5842 12.8305C39.2837 12.6249 38.8108 12.4745 38.1658 12.3815L37.0395 12.2286C35.838 12.0577 34.9281 11.6937 34.3088 11.1359C33.6888 10.5789 33.379 9.84863 33.379 8.94343C33.379 8.39038 33.4822 7.89168 33.6888 7.44814C33.8951 7.00379 34.1919 6.6272 34.5788 6.31916C34.9653 6.01191 35.4326 5.77399 35.9807 5.60697C36.5287 5.43839 37.1488 5.35566 37.8395 5.35566C38.688 5.35566 39.4864 5.45886 40.2385 5.66527C40.9889 5.87089 41.6454 6.16162 42.2086 6.53582L41.1947 8.44078ZM24.9208 7.64623C24.4108 7.64623 23.9546 7.74234 23.5532 7.93222C23.1517 8.12366 22.8117 8.38206 22.5339 8.70427C22.2561 9.02808 22.0421 9.40703 21.8918 9.84426C21.7415 10.2807 21.6664 10.7439 21.6664 11.2356C21.6664 11.7264 21.7415 12.1904 21.8918 12.6261C22.0421 13.0625 22.2561 13.443 22.5339 13.7661C22.8117 14.0898 23.1509 14.3467 23.5532 14.5381C23.9546 14.7288 24.4108 14.8241 24.9208 14.8241C25.4096 14.8241 25.852 14.7327 26.2497 14.5499C26.6482 14.3664 26.9896 14.1151 27.275 13.7952C27.5603 13.4761 27.7821 13.098 27.9399 12.6615C28.0969 12.2251 28.1759 11.7492 28.1759 11.2356C28.1759 10.7203 28.0969 10.2453 27.9399 9.8088C27.7821 9.37156 27.5603 8.99419 27.275 8.67433C26.9896 8.35607 26.6482 8.10394 26.2497 7.92118C25.8528 7.73839 25.4096 7.64623 24.9208 7.64623ZM30.3829 16.8344H28.0293V15.4904C27.6537 15.9891 27.1884 16.3861 26.6328 16.6823C26.0773 16.9793 25.4125 17.1275 24.6398 17.1275C23.8809 17.1275 23.1758 16.9809 22.5224 16.6894C21.8689 16.3964 21.2982 15.9891 20.8101 15.4667C20.3222 14.9452 19.9396 14.3236 19.6619 13.6027C19.3841 12.8811 19.2452 12.0925 19.2452 11.2353C19.2452 10.3774 19.3841 9.58797 19.6619 8.8679C19.9396 8.14703 20.3229 7.52465 20.8101 7.00312C21.2982 6.48077 21.8689 6.07427 22.5224 5.78119C23.1758 5.48892 23.8809 5.34238 24.6398 5.34238C25.4125 5.34238 26.0773 5.49363 26.6328 5.79301C27.1884 6.09318 27.6537 6.4926 28.0293 6.99051V5.63546H30.3829V16.8344ZM16.9831 16.8347H14.4376V3.36835L9.83224 15.233H7.15162L2.54553 3.49598V16.8347H0V0.469151H3.9086L8.49193 12.1589L13.0753 0.469151H16.9831V16.8347Z" fill="white"/>
</svg>
