<svg width="19" height="20" viewBox="0 0 19 20" fill="none" xmlns="http://www.w3.org/2000/svg">
<path d="M14.8114 6.20592C14.8131 6.17009 14.8139 6.12844 14.8139 6.08678C14.8139 5.23029 14.4598 4.45712 13.8891 3.90557L13.8883 3.90473C13.2909 3.35651 12.4902 3.02075 11.6121 3.02075C11.5588 3.02075 11.5054 3.02242 11.453 3.02408H11.4605H6.9164V9.38609H11.4605C11.5054 9.38859 11.5588 9.38942 11.6121 9.38942C12.4902 9.38942 13.2909 9.05366 13.8908 8.50294L13.8883 8.50544C14.459 7.95306 14.8139 7.17988 14.8139 6.3234C14.8139 6.28174 14.8131 6.24008 14.8114 6.19925V6.20592ZM18.1774 6.20592C18.1799 6.26924 18.1816 6.34256 18.1816 6.41671C18.1816 8.08803 17.4909 9.59855 16.3794 10.6783L16.3778 10.68C15.2355 11.7564 13.6917 12.418 11.9937 12.418C11.9045 12.418 11.8162 12.4163 11.7279 12.413H11.7404H6.91223V14.0884H14.0841H14.1016C14.3432 14.0884 14.539 14.2842 14.539 14.5259V14.5442V14.5433V16.3613V16.3788C14.539 16.6204 14.3432 16.8162 14.1016 16.8162C14.0957 16.8162 14.0891 16.8162 14.0832 16.8162H14.0841H6.91223V19.5431V19.5581C6.91223 19.6806 6.86141 19.7914 6.77893 19.8697C6.69811 19.9489 6.5873 19.998 6.46483 19.998C6.46316 19.998 6.46149 19.998 6.459 19.998H4.08782C4.08282 19.998 4.07616 19.998 4.07033 19.998C3.82871 19.998 3.63292 19.8023 3.63292 19.5606C3.63292 19.5548 3.63292 19.5481 3.63292 19.5423V19.5431V16.8162H0.451914C0.446916 16.8162 0.44025 16.8162 0.434418 16.8162C0.192802 16.8162 -0.00299072 16.6204 -0.00299072 16.3788C-0.00299072 16.373 -0.00299072 16.3663 -0.00299072 16.3605V16.3613V14.5433C-0.00299072 14.5384 -0.00299072 14.5317 -0.00299072 14.5259C-0.00299072 14.2842 0.192802 14.0884 0.434418 14.0884H0.452748H0.451914H3.63292V12.413H0.451914C0.446916 12.413 0.44025 12.413 0.434418 12.413C0.192802 12.413 -0.00299072 12.2172 -0.00299072 11.9756C-0.00299072 11.9697 -0.00299072 11.9631 -0.00299072 11.9572V9.84183C-0.00299072 9.84016 -0.00299072 9.8385 -0.00299072 9.83683C-0.00299072 9.71436 0.0461657 9.60355 0.125316 9.52273C0.203633 9.44025 0.314443 9.38942 0.436918 9.38942H0.452748H0.451914H3.63292V0.457951C3.63292 0.452952 3.63292 0.446287 3.63292 0.440455C3.63292 0.198838 3.82871 0.00304583 4.07033 0.00304583H4.08866H11.7421C11.8179 -0.000286806 11.9062 -0.00195312 11.9953 -0.00195312C13.6933 -0.00195312 15.2372 0.659576 16.3828 1.73935L16.3794 1.73602C17.4909 2.81663 18.1807 4.32631 18.1807 5.9968C18.1807 6.07011 18.1791 6.14343 18.1766 6.21675V6.20592H18.1774Z" fill="white"/>
</svg>
