<svg width="126" height="65" viewBox="0 0 126 65" fill="none" xmlns="http://www.w3.org/2000/svg">
<path d="M111.309 18.5538V34.4452H105.667V23.2977H100.234V34.4452H94.5918V18.5527H111.309V18.5538Z" fill="white"/>
<path fill-rule="evenodd" clip-rule="evenodd" d="M83.0038 35.0136C88.0548 35.0136 91.8056 31.899 91.8056 27.1773C91.8056 22.6073 89.0382 19.6401 84.4133 19.6401C82.2788 19.6401 80.5176 20.3957 79.191 21.6995C79.5077 19.0047 81.7736 17.0374 84.2684 17.0374C84.8442 17.0374 89.1788 17.0282 89.1788 17.0282L91.63 12.3108C91.63 12.3108 86.188 12.4354 83.6582 12.4354C77.8779 12.5367 73.9736 17.8206 73.9736 24.2383C73.9736 31.7149 77.7815 35.0136 83.0038 35.0136ZM83.0345 23.8185C84.9099 23.8185 86.2101 25.0578 86.2101 27.1768C86.2101 29.084 85.0548 30.6554 83.0345 30.6597C81.102 30.6597 79.8018 29.2037 79.8018 27.2093C79.8018 25.0898 81.102 23.8185 83.0345 23.8185Z" fill="white"/>
<path d="M69.3811 29.125C69.3811 29.125 68.0486 29.8974 66.0585 30.0436C63.7705 30.1119 61.7319 28.6586 61.7319 26.0765C61.7319 23.5577 63.5309 22.1142 66.0009 22.1142C67.5154 22.1142 69.519 23.1699 69.519 23.1699C69.519 23.1699 70.9851 20.4643 71.7445 19.1112C70.3538 18.0512 68.5016 17.47 66.3472 17.47C60.91 17.47 56.6987 21.0352 56.6987 26.0445C56.6987 31.1178 60.6569 34.6001 66.3472 34.4951C67.9377 34.4355 70.1319 33.8738 71.4693 33.0098L69.3811 29.125Z" fill="white"/>
<path d="M0 14.1487L7.82692 28.2184V36.8006L0.00915618 50.8427L0 14.1487Z" fill="white"/>
<path d="M30.0522 23.0983L37.3864 18.5776L52.396 18.5635L30.0522 32.3294V23.0983Z" fill="white"/>
<path d="M30.0103 14.0654L30.0518 32.6933L22.2065 27.8454V0L30.0103 14.0654Z" fill="white"/>
<path d="M52.3956 18.5634L37.3853 18.5775L30.0103 14.0654L22.2065 0L52.3956 18.5634Z" fill="white"/>
<path d="M30.0518 50.9202V41.8825L22.2065 37.1267L22.2109 64.9997L30.0518 50.9202Z" fill="white"/>
<path d="M37.368 46.4411L7.82638 28.2184L0 14.1487L52.3642 46.4227L37.368 46.4411Z" fill="white"/>
<path d="M22.2114 64.9999L30.0513 50.9204L37.3671 46.4408L52.3633 46.4224L22.2114 64.9999Z" fill="white"/>
<path d="M0.00976562 50.8425L22.2717 37.1275L14.7873 32.5093L7.82753 36.8004L0.00976562 50.8425Z" fill="white"/>
<path d="M61.7332 45.1406C61.5608 45.3616 61.3341 45.5284 61.0621 45.6411C60.783 45.7553 60.4844 45.8135 60.1831 45.8123C59.8834 45.8163 59.5855 45.7661 59.3035 45.6638C59.0503 45.5713 58.8189 45.4271 58.6238 45.2403C58.4312 45.0531 58.28 44.8272 58.18 44.5773C58.0718 44.3035 58.0178 44.0111 58.0211 43.7166C58.0211 43.4241 58.0712 43.1532 58.1752 42.8965C58.2748 42.6392 58.4197 42.4187 58.6012 42.2335C58.7827 42.0444 59.0003 41.9003 59.2448 41.7877C59.4942 41.6793 59.7662 41.6208 60.0651 41.6208C60.3872 41.6208 60.6861 41.6615 60.9581 41.7422C61.2301 41.8234 61.4612 41.9588 61.6513 42.1484L61.3206 42.7118C61.1607 42.566 60.9723 42.4553 60.7675 42.3868C60.5727 42.3237 60.3693 42.2919 60.1648 42.2925C59.9838 42.2925 59.8114 42.3283 59.6439 42.396C59.4789 42.4628 59.328 42.5608 59.1996 42.6847C59.0683 42.812 58.9649 42.9655 58.8958 43.1353C58.8188 43.3108 58.7827 43.5048 58.7827 43.7209C58.7827 43.9419 58.8231 44.1401 58.9001 44.3113C58.9777 44.4873 59.0816 44.6363 59.2131 44.762C59.3445 44.8887 59.4985 44.983 59.6752 45.0463C59.8524 45.114 60.0382 45.1455 60.2375 45.1455C60.482 45.1455 60.7044 45.0956 60.8946 45.0008C61.083 44.9093 61.2522 44.7825 61.3933 44.6271L61.7332 45.1406ZM62.6666 45.7175V41.7064H63.3829V44.6948L65.7123 41.7064H66.4287V45.718H65.7123V42.7296L63.3829 45.718L62.6666 45.7175ZM71.1737 45.1406C70.9975 45.3634 70.7663 45.536 70.5032 45.6411C70.2239 45.7553 69.9251 45.8134 69.6236 45.8123C69.3242 45.8163 69.0264 45.766 68.7446 45.6638C68.4913 45.5714 68.2597 45.4271 68.0644 45.2403C67.8718 45.0531 67.7206 44.8272 67.6206 44.5773C67.5124 44.3035 67.4584 44.0111 67.4617 43.7166C67.4617 43.4241 67.5118 43.1532 67.6157 42.8965C67.7159 42.6392 67.8608 42.4187 68.0418 42.2335C68.2233 42.0444 68.4409 41.9003 68.6854 41.7877C68.9437 41.6733 69.2235 41.6164 69.5057 41.6208C69.8278 41.6208 70.1267 41.6615 70.3987 41.7422C70.6707 41.8234 70.9017 41.9588 71.0924 42.1484L70.7612 42.7118C70.6015 42.5659 70.4133 42.4552 70.2086 42.3868C70.0138 42.3237 69.8104 42.2919 69.6059 42.2925C69.2458 42.2937 68.9 42.4341 68.6402 42.6847C68.51 42.813 68.4067 42.9662 68.3364 43.1353C68.2594 43.3108 68.2233 43.5048 68.2233 43.7209C68.2233 43.9419 68.2642 44.1401 68.3412 44.3113C68.4183 44.4873 68.5222 44.6363 68.6536 44.762C68.785 44.8887 68.9396 44.983 69.1163 45.0463C69.2929 45.1092 69.4788 45.1455 69.678 45.1455C69.9231 45.1455 70.1407 45.0956 70.3351 45.0008C70.5235 44.9093 70.6928 44.7825 70.8339 44.6271L71.1737 45.1406ZM71.541 41.7064H75.2165V42.4187H73.7391V45.7175H73.0227V42.4187H71.5454V41.7064H71.541Z" fill="white"/>
<path fill-rule="evenodd" clip-rule="evenodd" d="M78.5621 45.6776C78.834 45.592 79.0651 45.4609 79.2644 45.2811L79.0468 44.7221C78.9154 44.8396 78.7387 44.9388 78.526 45.02C78.3127 45.1013 78.0725 45.1413 77.8096 45.1413C77.4154 45.1413 77.089 45.0379 76.8305 44.8261C76.5725 44.6138 76.4319 44.3169 76.4001 43.9378H79.5003C79.5321 43.798 79.5455 43.6404 79.5455 43.4557C79.5455 43.1805 79.4954 42.933 79.3958 42.7076C79.3031 42.4888 79.1675 42.291 78.9972 42.1259C78.8246 41.9624 78.6212 41.8353 78.3989 41.7521C78.1662 41.6613 77.9186 41.6154 77.6691 41.6167C77.3335 41.6167 77.0389 41.6752 76.7809 41.7836C76.537 41.8868 76.3164 42.0386 76.1324 42.2299C75.9538 42.4202 75.8166 42.6458 75.7296 42.8924C75.6338 43.1549 75.5862 43.4328 75.589 43.7124C75.589 44.0282 75.6434 44.3164 75.743 44.5737C75.84 44.8229 75.9883 45.0487 76.1782 45.2361C76.364 45.4203 76.5902 45.5606 76.8579 45.6597C77.1445 45.7619 77.4469 45.8122 77.7509 45.8081C78.0263 45.8064 78.2998 45.7621 78.5621 45.6776ZM76.7491 42.5901C76.971 42.3875 77.2656 42.2884 77.6373 42.2884C77.9863 42.2884 78.2674 42.3832 78.4716 42.5728C78.6757 42.7618 78.784 43.0234 78.8023 43.3566H76.3549C76.3896 43.0616 76.5297 42.7889 76.7491 42.5901Z" fill="white"/>
<path d="M80.52 41.7063H81.1728L82.7229 43.6942L84.1911 41.7063H84.8256V45.7179H84.1098V42.7929L82.7137 44.654H82.6863L81.2363 42.7923V45.7173H80.52V41.7063Z" fill="white"/>
<path fill-rule="evenodd" clip-rule="evenodd" d="M86.7739 41.7198C86.5565 41.7769 86.3488 41.8664 86.1577 41.9852L86.3479 42.554C86.5111 42.4727 86.6743 42.405 86.8375 42.3465C87.0006 42.2875 87.2091 42.2604 87.4585 42.2604C87.6577 42.2604 87.8166 42.2924 87.9389 42.3552C88.0611 42.4137 88.1516 42.5042 88.2152 42.6125C88.2787 42.7208 88.3197 42.8557 88.3423 43.0133C88.3649 43.171 88.3741 43.3421 88.3741 43.5274C88.2275 43.4247 88.0604 43.3553 87.8845 43.3242C87.7143 43.2902 87.5414 43.2721 87.368 43.2701C87.1547 43.2701 86.9554 43.302 86.7647 43.3557C86.5746 43.4098 86.4114 43.4911 86.28 43.5994C86.1459 43.7076 86.0375 43.8445 85.9628 44.0002C85.8829 44.1707 85.8426 44.3572 85.8448 44.5457C85.8448 44.9379 85.9585 45.2445 86.1847 45.4611C86.4114 45.6772 86.7103 45.785 87.082 45.785C87.4175 45.785 87.6852 45.7265 87.8888 45.6095C88.0929 45.492 88.2561 45.3571 88.3741 45.2038V45.7222H89.0446V43.2614C89.0446 42.7382 88.9315 42.333 88.7005 42.0486C88.4737 41.7648 88.0703 41.6207 87.4994 41.6207C87.2452 41.6207 87.005 41.6565 86.7739 41.7198ZM87.9712 44.9698C87.808 45.0868 87.5947 45.1404 87.3319 45.1404C87.1008 45.1404 86.9193 45.0819 86.7927 44.9693C86.6656 44.8523 86.6021 44.699 86.6021 44.5094C86.6021 44.3973 86.6247 44.3025 86.6748 44.2169C86.7249 44.1313 86.7927 44.0636 86.8698 44.0095C86.954 43.9528 87.0476 43.9115 87.1461 43.8876C87.2506 43.8605 87.3545 43.847 87.4633 43.847C87.8172 43.847 88.1204 43.9325 88.3698 44.1129V44.6221C88.2523 44.7545 88.1183 44.8717 87.9712 44.9698ZM95.3678 40.2953C95.5127 40.2281 95.6484 40.1154 95.7755 39.9486L95.3856 39.3853C95.2859 39.5207 95.1728 39.6149 95.0457 39.6648C94.911 39.7177 94.7713 39.7569 94.6288 39.7818L94.4931 39.8061C94.3751 39.8267 94.2486 39.8495 94.1123 39.8722C93.8938 39.9129 93.6808 39.9794 93.4778 40.0705C93.1558 40.2102 92.8978 40.3992 92.7028 40.6381C92.5078 40.877 92.3538 41.1473 92.2493 41.4452C92.1435 41.747 92.0721 42.0599 92.0365 42.378C91.9999 42.703 91.9822 43.0133 91.9822 43.3107C91.9822 43.6942 92.0317 44.0409 92.1313 44.3518C92.2315 44.6632 92.3716 44.9243 92.5574 45.1361C92.7432 45.3528 92.9656 45.5153 93.2285 45.6323C93.4913 45.7493 93.7859 45.8078 94.1166 45.8078C94.4204 45.8078 94.7015 45.7493 94.9552 45.6409C95.1998 45.5369 95.4216 45.3854 95.608 45.1952C95.789 45.0099 95.9344 44.7889 96.034 44.5414C96.138 44.2933 96.1881 44.0273 96.1881 43.7478C96.1881 43.4461 96.1428 43.1715 96.0567 42.9277C95.9773 42.6954 95.8507 42.4821 95.685 42.3016C95.519 42.124 95.3162 41.9854 95.0909 41.8953C94.8429 41.7971 94.5782 41.7481 94.3116 41.7512C94.1392 41.7512 93.9717 41.774 93.8085 41.819C93.6498 41.864 93.4974 41.9291 93.355 42.0129C93.2169 42.0924 93.0904 42.1909 92.9791 42.3054C92.8703 42.4186 92.7798 42.5448 92.7163 42.6889H92.6979C92.712 42.5042 92.7346 42.3151 92.775 42.1212C92.8159 41.9273 92.8746 41.742 92.9522 41.5665C93.0292 41.391 93.1288 41.2329 93.2511 41.0888C93.3822 40.9434 93.5429 40.8281 93.7224 40.7508C93.9197 40.6563 94.1285 40.5882 94.3434 40.5482L94.4856 40.5222C94.6272 40.4962 94.7624 40.4713 94.8917 40.4442C95.064 40.4085 95.2224 40.3624 95.3678 40.2953ZM92.8477 44.1492C92.7776 43.9216 92.744 43.6843 92.748 43.4461C92.7784 43.3094 92.8337 43.1796 92.9112 43.0632C92.9883 42.9413 93.0879 42.8335 93.2059 42.7382C93.472 42.5284 93.8011 42.4158 94.1392 42.4186C94.561 42.4186 94.8782 42.5491 95.1001 42.8064C95.3225 43.0675 95.4313 43.392 95.4313 43.7841C95.4313 43.978 95.3947 44.1541 95.3317 44.316C95.2704 44.4758 95.1779 44.6215 95.0596 44.7447C94.9412 44.8678 94.7995 44.9657 94.6428 45.0327C94.4796 45.1047 94.3024 45.141 94.1031 45.141C93.9039 45.141 93.7224 45.1004 93.5549 45.0191C93.3884 44.9395 93.2413 44.8241 93.124 44.6811C93.0012 44.5218 92.9076 44.3416 92.8477 44.1492ZM101.681 41.7063H100.965V45.7179H101.681V41.7063ZM97.2211 41.7063H97.9374V42.9099H98.5994C98.9118 42.9099 99.1654 42.9505 99.3696 43.0269C99.5737 43.1038 99.7369 43.2072 99.8592 43.3335C99.9814 43.4597 100.068 43.6086 100.118 43.7749C100.167 43.9417 100.195 44.1129 100.195 44.2933C100.195 44.4737 100.167 44.6454 100.109 44.8165C100.054 44.9877 99.9588 45.1361 99.8317 45.2715C99.7051 45.4069 99.5328 45.5153 99.3152 45.5965C99.0976 45.6772 98.8348 45.7222 98.5175 45.7222H97.2168V41.7063H97.2211ZM97.9374 43.581V45.0505H98.4588C98.817 45.0505 99.0707 44.9877 99.2155 44.861C99.361 44.7347 99.4331 44.5549 99.4331 44.316C99.4331 44.0723 99.3561 43.8881 99.2112 43.7614C99.0615 43.6352 98.8121 43.5718 98.468 43.5718H97.9374V43.581Z" fill="white"/>
<path d="M106.418 45.1406C106.245 45.3616 106.019 45.5284 105.747 45.6411C105.468 45.7553 105.169 45.8134 104.868 45.8123C104.568 45.8163 104.27 45.7661 103.988 45.6638C103.735 45.5715 103.503 45.4273 103.308 45.2403C103.116 45.053 102.964 44.8271 102.864 44.5773C102.756 44.3034 102.702 44.0111 102.706 43.7166C102.706 43.4241 102.755 43.1532 102.86 42.8965C102.959 42.6392 103.104 42.4187 103.286 42.2335C103.467 42.0444 103.684 41.9004 103.929 41.7877C104.188 41.6732 104.468 41.6163 104.75 41.6209C105.071 41.6209 105.371 41.6615 105.643 41.7422C105.915 41.8234 106.146 41.9589 106.336 42.1484L106.005 42.7118C105.845 42.566 105.657 42.4553 105.452 42.3868C105.257 42.3237 105.054 42.2919 104.849 42.2925C104.668 42.2925 104.496 42.3283 104.328 42.396C104.163 42.4629 104.012 42.5609 103.884 42.6847C103.754 42.8129 103.651 42.9661 103.58 43.1353C103.503 43.3108 103.467 43.5048 103.467 43.7209C103.467 43.9419 103.508 44.1401 103.585 44.3113C103.662 44.4873 103.766 44.6363 103.898 44.762C104.029 44.8887 104.183 44.983 104.36 45.0463C104.537 45.1092 104.723 45.1455 104.922 45.1455C105.167 45.1455 105.384 45.0956 105.579 45.0008C105.768 44.9093 105.937 44.7825 106.078 44.6271L106.418 45.1406ZM106.785 41.7064H110.46V42.4187H108.983V45.7175H108.267V42.4187H106.789V41.7064H106.785Z" fill="white"/>
<path fill-rule="evenodd" clip-rule="evenodd" d="M111.957 41.707H111.24V47.5028H111.957V45.5333C112.101 45.6281 112.274 45.6958 112.473 45.7407C112.672 45.7857 112.881 45.8079 113.094 45.8079C113.411 45.8079 113.697 45.7494 113.955 45.6416C114.203 45.5349 114.428 45.3804 114.617 45.1866C114.803 44.9922 114.943 44.7668 115.043 44.5009C115.142 44.2355 115.192 43.9511 115.192 43.6494C115.192 43.3515 115.147 43.0768 115.061 42.8288C114.98 42.5932 114.854 42.3758 114.689 42.189C114.528 42.0069 114.328 41.8636 114.105 41.7698C113.86 41.6641 113.596 41.6118 113.329 41.6165C113.049 41.6165 112.786 41.6707 112.537 41.779C112.287 41.8873 112.092 42.0173 111.957 42.1798V41.707ZM112.455 42.4507C112.659 42.3423 112.881 42.2882 113.122 42.2882C113.33 42.2882 113.516 42.3196 113.684 42.3873C113.847 42.455 113.983 42.5498 114.096 42.676C114.21 42.8022 114.296 42.9468 114.35 43.1175C114.409 43.2886 114.436 43.4739 114.436 43.6765C114.436 43.8931 114.4 44.0865 114.337 44.2669C114.277 44.4379 114.183 44.5945 114.06 44.7267C113.936 44.8574 113.786 44.9602 113.62 45.0285C113.435 45.1064 113.236 45.1448 113.035 45.1411C112.841 45.1411 112.659 45.1189 112.487 45.074C112.298 45.0223 112.119 44.94 111.957 44.8302V42.8423C112.084 42.6895 112.252 42.559 112.455 42.4507ZM120.686 41.7064H119.969V45.718H120.686V41.7064ZM116.221 41.7064H116.938V42.91H117.599C117.912 42.91 118.166 42.9506 118.37 43.027C118.574 43.1039 118.737 43.2074 118.859 43.3336C118.982 43.4598 119.068 43.6087 119.117 43.775C119.167 43.9419 119.194 44.113 119.194 44.2934C119.194 44.4738 119.167 44.6455 119.109 44.8167C119.054 44.9878 118.959 45.1362 118.832 45.2717C118.705 45.4071 118.533 45.5154 118.315 45.5967C118.098 45.6774 117.835 45.7223 117.518 45.7223H116.217V41.7064H116.221ZM116.942 43.5811V45.0507H117.464C117.821 45.0507 118.076 44.9878 118.22 44.8611C118.365 44.7349 118.438 44.555 118.438 44.3162C118.438 44.0724 118.361 43.8882 118.216 43.7615C118.066 43.6353 117.817 43.5719 117.473 43.5719H116.942V43.5811Z" fill="white"/>
<path d="M124.121 43.64L125.653 45.7179H124.774L123.59 44.095L122.389 45.7179H121.556L123.078 43.6758L121.646 41.7063H122.526L123.618 43.2208L124.728 41.7063H125.562L124.121 43.64ZM61.2034 50.6757H59.0054V54.02H58.2891V50.0089H61.9192V54.02H61.2034V50.6757ZM65.9846 50.7207H64.5707L64.525 51.3967C64.4754 51.9692 64.4075 52.4291 64.3122 52.7801C64.2169 53.1322 64.0989 53.4025 63.9632 53.5915C63.8275 53.7811 63.6686 53.9116 63.4871 53.975C63.2998 54.0433 63.1019 54.0769 62.9027 54.0741L62.8483 53.3797C62.9253 53.3841 63.0158 53.3662 63.1155 53.3212C63.2156 53.2763 63.3153 53.1771 63.4101 53.0287C63.5054 52.8749 63.5916 52.6588 63.6686 52.3793C63.7456 52.0954 63.7957 51.726 63.8226 51.2613L63.8953 50.0127H66.7009V54.0243H65.9846V50.7207Z" fill="white"/>
<path fill-rule="evenodd" clip-rule="evenodd" d="M68.6318 50.0183C68.4002 50.0811 68.1918 50.1711 68.0151 50.2837L68.2058 50.8519C68.369 50.7707 68.5322 50.703 68.6948 50.6445C68.858 50.586 69.067 50.5589 69.3158 50.5589C69.5157 50.5589 69.674 50.5903 69.7963 50.6531C69.9191 50.7122 70.0096 50.8021 70.0731 50.9104C70.1361 51.0188 70.1771 51.1542 70.1997 51.3113C70.2223 51.4694 70.2315 51.6406 70.2315 51.8253C70.0849 51.7227 69.9178 51.6536 69.7419 51.6227C69.5717 51.5887 69.3988 51.5706 69.2254 51.5686C69.0126 51.5686 68.8128 51.6 68.6227 51.6541C68.432 51.7083 68.2688 51.7896 68.1374 51.8979C68.0032 52.006 67.8948 52.143 67.8201 52.2987C67.7405 52.4693 67.7004 52.6558 67.7027 52.8442C67.7027 53.2358 67.8158 53.5429 68.0426 53.7591C68.2688 53.9752 68.5683 54.0835 68.9399 54.0835C69.2754 54.0835 69.5426 54.025 69.7467 53.9075C69.9503 53.7905 70.1135 53.6551 70.2315 53.5018V54.0201H70.9026V51.5594C70.9026 51.0366 70.7889 50.6309 70.5579 50.3471C70.3311 50.0627 69.9277 49.9192 69.3568 49.9192C69.1118 49.9194 68.868 49.9531 68.6318 50.0183ZM69.8329 53.2672C69.6702 53.3848 69.457 53.4389 69.1941 53.4389C68.9582 53.4389 68.7815 53.3804 68.655 53.2672C68.5279 53.1502 68.4643 52.9969 68.4643 52.8079C68.4643 52.6952 68.4869 52.6004 68.537 52.5148C68.5866 52.4293 68.655 52.3616 68.732 52.3074C68.809 52.2532 68.9038 52.2126 69.0083 52.1855C69.1119 52.1586 69.2185 52.1451 69.3255 52.1454C69.6789 52.1454 69.9826 52.231 70.232 52.4108V52.92C70.1143 53.0525 69.9802 53.1691 69.8329 53.2672Z" fill="white"/>
<path d="M71.6045 50.009H75.2804V50.7208H73.8025V54.0201H73.0867V50.7213H71.6093V50.009H71.6045Z" fill="white"/>
<path fill-rule="evenodd" clip-rule="evenodd" d="M78.626 53.9794C78.898 53.8938 79.1291 53.7627 79.3284 53.5829L79.1108 53.0239C78.9794 53.1415 78.8027 53.2406 78.5894 53.3218C78.3767 53.4031 78.1365 53.4432 77.8736 53.4432C77.4794 53.4432 77.153 53.3397 76.8945 53.1279C76.6359 52.9161 76.4959 52.6187 76.4641 52.2396H79.5643C79.5955 52.1004 79.6095 51.9422 79.6095 51.7575C79.6095 51.4829 79.5594 51.2348 79.4598 51.0095C79.367 50.7907 79.2312 50.593 79.0607 50.4282C78.8884 50.2644 78.6851 50.1371 78.4629 50.054C78.2302 49.9632 77.9826 49.9173 77.7331 49.9185C77.3975 49.9185 77.1029 49.977 76.8449 50.0854C76.6008 50.1883 76.3802 50.3402 76.1964 50.5317C76.0179 50.7221 75.8805 50.9477 75.793 51.1942C75.6975 51.4568 75.6499 51.7346 75.6524 52.0142C75.6524 52.33 75.7068 52.6182 75.8065 52.8755C75.9067 53.1322 76.0559 53.3532 76.2417 53.5379C76.4275 53.7227 76.6542 53.8624 76.9219 53.9615C77.2083 54.0639 77.5105 54.1144 77.8144 54.1105C78.0821 54.1105 78.3541 54.065 78.626 53.9794ZM76.8088 50.8876C77.0307 50.685 77.3253 50.5859 77.697 50.5859C78.0508 50.5859 78.3271 50.685 78.5313 50.8697C78.7348 51.0593 78.8436 51.3204 78.862 51.654H76.4146C76.4491 51.3589 76.5892 51.0865 76.8088 50.8876ZM79.9585 50.009H80.865L82.247 51.9427L80.7697 54.02H79.8907L81.4402 51.9422L79.9585 50.009ZM82.4237 50.009H83.14V54.02H82.4237V50.009ZM85.7005 54.02L84.1235 51.9422L85.5966 50.0085H84.7079L83.3167 51.9422L84.8124 54.02H85.7005ZM88.9731 53.9794C89.2451 53.8938 89.4761 53.7627 89.6754 53.5829L89.4578 53.0239C89.3264 53.1415 89.1497 53.2406 88.937 53.3218C88.7237 53.4031 88.4835 53.4432 88.2207 53.4432C87.8264 53.4432 87.5 53.3397 87.2415 53.1279C86.9835 52.9161 86.8429 52.6187 86.8111 52.2396H89.9113C89.9431 52.1004 89.9566 51.9422 89.9566 51.7575C89.9566 51.4829 89.907 51.2348 89.8068 51.0095C89.714 50.7908 89.5785 50.5932 89.4083 50.4282C89.2358 50.2644 89.0323 50.1371 88.8099 50.054C88.5772 49.9632 88.3296 49.9172 88.0801 49.9185C87.7451 49.9185 87.4505 49.977 87.1919 50.0854C86.9481 50.1885 86.7277 50.3403 86.544 50.5317C86.3651 50.7218 86.2276 50.9475 86.1406 51.1942C86.0448 51.4567 85.9972 51.7346 86 52.0142C86 52.33 86.0544 52.6182 86.154 52.8755C86.2537 53.1322 86.4034 53.3532 86.5892 53.5379C86.7751 53.7227 87.0013 53.8624 87.269 53.9615C87.5555 54.0639 87.8579 54.1144 88.1619 54.1105C88.4374 54.1084 88.7109 54.0642 88.9731 53.9794ZM87.1558 50.8876C87.3783 50.685 87.6729 50.5859 88.0445 50.5859C88.3935 50.5859 88.6742 50.685 88.8783 50.8697C89.0824 51.0593 89.1912 51.3204 89.209 51.654H86.7616C86.7961 51.3589 86.9363 51.0865 87.1558 50.8876ZM92.8623 48.6613C92.4406 48.6613 92.2095 48.4268 92.1734 47.9583H91.498C91.498 48.1381 91.5298 48.3006 91.5885 48.4539C91.6478 48.6072 91.7339 48.7377 91.847 48.846C91.9601 48.9544 92.1056 49.04 92.2731 49.1071C92.4406 49.1748 92.6355 49.2062 92.8575 49.2062C93.0616 49.2062 93.2431 49.1748 93.4063 49.1071C93.5695 49.0443 93.7052 48.9544 93.8232 48.846C93.9363 48.7377 94.0273 48.6072 94.0903 48.4539C94.1539 48.3006 94.1856 48.1381 94.1856 47.9583H93.5151C93.4833 48.4268 93.2609 48.6613 92.8623 48.6613ZM90.9266 50.0085V54.02H91.6429L93.9724 51.0317V54.02H94.6887V50.0085H93.9724L91.6429 52.9968V50.0085H90.9266Z" fill="white"/>
</svg>
