<svg width="300" height="299" viewBox="0 0 300 299" fill="none" xmlns="http://www.w3.org/2000/svg">
<path d="M109.951 31.8822C116.143 31.3812 118.931 40.0938 112.707 45.3786C110.774 47.0198 107.398 49.1341 105.3 48.8881C104.881 51.4164 104.199 55.8368 97.7852 61.3448C96.4255 62.5123 90.3721 67.3492 82.4057 69.0067C80.9738 69.3046 73.7157 69.2171 67.6339 63.7849C58.6714 55.7798 61.636 42.732 61.8353 41.8682C60.9184 40.1463 58.1843 34.9438 60.1846 27.0709C64.3814 14.1634 75.8296 10.9466 79.9933 11.0255C81.5693 11.0553 94.906 11.2848 101.395 21.9625C106.138 29.7661 105.376 34.7194 105.592 34.5214C107.334 32.9257 108.299 32.016 109.951 31.8822Z" fill="#744747"/>
<path d="M78.7941 48.2914C78.9369 47.0832 74.353 45.0735 72.8643 46.372C72.3991 46.7777 72.171 47.5635 72.3719 48.1701C72.6453 48.9954 73.6429 49.2772 74.105 49.4077C76.0733 49.9637 78.6909 49.1654 78.7941 48.2914Z" fill="#633B3B"/>
<path d="M103.504 36.9772C83.3718 37.3593 76.9171 16.6791 76.9171 16.6791C72.6735 28.4554 59.4707 32.7637 59.4707 32.7637C59.4707 32.7637 58.7588 23.9689 66.33 16.7889C69.8321 13.4677 75.1346 10.1261 84.4543 10.9145C93.3683 11.6685 116.539 24.1947 108.366 32.8421C106.451 34.8679 105.884 36.9319 103.504 36.9772Z" fill="#633B3B"/>
<path d="M83.5364 51.6836C82.6029 51.8326 71.3336 53.1556 71.3336 53.1556C71.3336 53.1556 74.0333 54.0447 77.7306 53.6564C80.8468 53.3293 84.5434 51.5228 83.5364 51.6836Z" fill="#633B3B"/>
<path d="M76.8358 32.1163C76.3615 32.6282 76.0161 34.3837 78.1465 33.8612C87.7924 31.4956 93.3487 32.0827 92.1109 31.2278C89.4334 29.3784 79.7206 29.0019 76.8358 32.1163Z" fill="black"/>
<path d="M69.1767 35.8891C69.6197 36.2376 70.3355 37.7156 68.8513 37.7244C62.1309 37.764 58.8142 39.5135 59.3472 38.4826C60.4997 36.2522 66.4822 33.7694 69.1767 35.8891Z" fill="black"/>
<path opacity="0.61" d="M98.939 50.9899C99.7756 47.9102 97.9192 44.7526 94.7925 43.937C91.6659 43.1215 88.4532 44.957 87.6166 48.0366C86.78 51.1163 88.6364 54.2738 91.763 55.0894C94.8895 55.905 98.1024 54.0696 98.939 50.9899Z" fill="url(#paint0_linear_296_137)"/>
<path opacity="0.61" d="M61.4133 48.7239C61.3921 49.958 61.4989 51.4708 61.7748 53.0814C62.0422 54.6432 62.4917 55.9732 62.8756 57.1315C62.8756 57.1315 64.8331 57.8635 66.6155 56.9456C66.8461 56.8268 67.6197 56.3896 68.2284 55.547C69.783 53.3953 69.3803 50.2293 67.2154 48.6251C64.5486 46.649 61.4133 48.7239 61.4133 48.7239Z" fill="url(#paint1_linear_296_137)"/>
<path d="M110.437 13.8198C124.902 23.0425 124.867 35.1914 121.572 46.0163C121.572 46.0163 126.454 32.4507 124.656 26.331C122.432 18.7615 110.437 13.8198 110.437 13.8198Z" fill="black"/>
<path d="M66.4718 43.9875C67.7042 43.9875 68.7033 42.9884 68.7033 41.756C68.7033 40.5235 67.7042 39.5244 66.4718 39.5244C65.2393 39.5244 64.2402 40.5235 64.2402 41.756C64.2402 42.9884 65.2393 43.9875 66.4718 43.9875Z" fill="#020202"/>
<path d="M82.7665 40.9946C84.0637 40.9946 85.1153 39.943 85.1153 38.6457C85.1153 37.3485 84.0637 36.2969 82.7665 36.2969C81.4692 36.2969 80.4176 37.3485 80.4176 38.6457C80.4176 39.943 81.4692 40.9946 82.7665 40.9946Z" fill="#020202"/>
<path d="M23.6712 72.5858C21.8048 70.6696 16.8883 64.786 17.0727 56.7559C17.322 45.9066 27.4768 35.3642 42.1815 33.1056C49.9143 15.6425 54.7824 9.01245 70.5055 6.80449C89.4015 -12.7054 125.956 12.9668 122.611 43.0074C138.909 37.6349 151.727 50.0331 143.513 70.5492C166.845 82.4529 152.507 99.9524 146.225 98.8939C139.835 84.0519 99.0958 75.9702 99.3445 78.0057C98.7126 72.8337 97.5919 61.5082 97.5919 61.5082C97.5919 61.5082 105.088 55.5229 104.832 48.0248C120.667 45.9117 116.773 24.9903 105.703 34.6165C94.6015 36.1386 83.0105 33.0994 73.514 14.7602C71.1871 22.8818 68.0203 26.2559 61.3598 28.6434C57.7811 35.7925 62.9775 39.9655 62.8616 41.2033C60.0075 71.6949 86.1472 68.1494 86.1472 68.1494L86.4078 80.8736C82.7262 81.31 72.572 85.1734 67.5709 94.3671C65.562 98.0604 63.6365 103.443 62.648 108.256C61.0129 116.216 56.5297 136.766 57.2959 152.414C31.0277 161.441 8.29524 126.132 20.4851 107.64C20.4851 107.64 6.28985 86.7346 23.6712 72.5858Z" fill="black"/>
<path d="M97.785 61.3447L99.4697 79.673C95.0157 80.2992 85.2575 85.927 85.5394 81.4378C85.8222 76.9323 85.0066 72.6753 84.2378 68.1273C90.4726 65.7798 91.4454 65.8475 97.785 61.3447Z" fill="#744747"/>
<path d="M97.785 61.3447L98.5088 69.2204C90.3089 78.969 85.4972 76.9852 85.4972 76.9852L84.2376 68.1401C90.017 67.294 93.8419 65.3835 97.785 61.3447Z" fill="#633B3B"/>
<path d="M26.6003 84.8169C26.6003 84.8169 28.604 81.3382 30.4332 80.2295C31.4291 79.6258 32.5761 80.0527 32.7472 81.0745C33.0531 82.9021 31.4036 88.0263 27.7773 90.189C21.0275 94.2146 20.6539 87.7906 21.2025 86.0238C21.8025 84.0917 26.5999 84.8169 26.6003 84.8169Z" fill="#633B3B"/>
<path d="M53.2775 83.6225L22.1389 84.6429L20.9209 64.3504L51.6724 62.3956L53.2775 83.6225Z" fill="#FFA623"/>
<path d="M52.08 68.0088L52.4699 72.9432L21.5504 74.8385L21.2597 69.9938L52.08 68.0088Z" fill="#FFCA5A"/>
<path d="M42.86 82.0784C44.5196 82.0784 45.865 80.733 45.865 79.0734C45.865 77.4137 44.5196 76.0684 42.86 76.0684C41.2004 76.0684 39.855 77.4137 39.855 79.0734C39.855 80.733 41.2004 82.0784 42.86 82.0784Z" fill="#DF8809"/>
<path d="M47.5157 81.8821C49.1753 81.8821 50.5207 80.5367 50.5207 78.8771C50.5207 77.2175 49.1753 75.8721 47.5157 75.8721C45.8561 75.8721 44.5107 77.2175 44.5107 78.8771C44.5107 80.5367 45.8561 81.8821 47.5157 81.8821Z" fill="#F1411D"/>
<path d="M10.6627 77.0505C10.99 76.285 16.3693 71.1152 17.6369 70.6926C25.43 68.0948 32.2999 66.9706 32.2968 67.6115C32.2665 73.5871 23.0996 73.3185 22.1943 74.1635C20.9324 75.3411 22.2764 76.2794 21.7113 77.9964C20.1005 82.8903 12.4761 86.0225 10.243 84.0929C8.68738 82.7489 9.83067 78.9968 10.6627 77.0505Z" fill="#633B3B"/>
<path d="M85.0044 80.4166C82.9994 81.9051 63.4687 84.6958 58.2335 89.4925C47.3801 99.437 39.399 152.085 39.399 152.085L19.904 111.56C19.6804 111.095 19.7121 110.547 19.9873 110.111C25.1412 101.938 27.4204 97.0151 28.7582 90.4642C28.7582 90.4642 31.6601 91.6927 32.0415 89.5944C32.1687 88.8952 28.9579 82.7277 27.7497 81.5196C22.9016 76.6716 22.4407 74.6845 20.0896 74.0927C19.4099 73.9216 17.2617 74.8438 17.2617 74.8438C15.8112 73.8819 13.4238 74.6896 10.8688 77.1006C9.43791 76.4879 3.71589 81.0426 2.90113 82.3555C2.90113 82.3555 0.896768 85.0252 0.0731605 88.6741C-0.797587 91.6462 6.39174 112.844 6.39174 112.844C15.1381 144.071 18.6462 189.531 38.2265 194.322C46.7376 196.404 54.8864 189.885 57.9573 184.426C66.335 169.533 71.4341 147.221 71.4341 147.221C71.4341 147.221 96.6961 142.229 120.831 126.992C128.906 121.893 147.387 111.521 146.063 97.1695C144.944 85.0414 134.292 71.2744 122.522 72.9422C120.579 73.2174 100.409 77.4841 99.6255 76.7906C99.0026 76.2393 98.9861 74.8368 98.9791 74.8385C98.7058 74.9052 85.589 78.3359 85.589 78.8773C85.5888 79.2068 85.6954 79.9036 85.0044 80.4166Z" fill="#744747"/>
<path d="M10.8688 77.1008C10.8358 77.2004 15.6912 77.3892 18.0353 80.9701C19.918 83.8463 19.7788 87.0327 21.6263 89.8559C22.2675 90.8357 23.6023 91.7837 24.4761 91.3674C25.7833 90.7447 24.9432 86.3723 23.2931 82.6871C21.0425 77.6615 17.275 74.83 17.2617 74.844C17.2479 74.8587 19.4033 75.1223 25.1441 84.2697C27.1042 87.3929 28.758 90.4642 28.758 90.4642C28.948 92.7588 21.7154 91.7606 17.8875 102.568C17.8387 102.706 5.03148 94.1886 6.05991 88.8293C6.19247 88.1391 7.88415 85.0347 9.44491 83.732C9.74586 83.4809 14.3334 82.5262 14.5024 83.0153C15.8479 86.9071 18.9021 87.2443 19.2156 86.7379C19.5643 86.1747 17.2129 80.6161 16.8281 80.1389C15.3796 78.3412 10.8976 77.0139 10.8688 77.1008Z" fill="#633B3B"/>
<path d="M39.7784 149.71C39.7784 149.71 43.1758 166.367 43.1101 169.752C43.0961 170.472 39.3988 152.085 39.3988 152.085L39.7784 149.71Z" fill="#633B3B"/>
<path d="M63.9022 126.301C64.3335 151.202 63.9798 167.813 60.1808 180.158C64.845 169.787 68.826 158.961 71.4341 147.221L63.9022 126.301Z" fill="#633B3B"/>
<path d="M90.868 187.099C90.868 187.099 24.3864 226.91 23.2097 253.385C23.1229 255.338 24.3864 270.446 38.1141 272.996C49.1069 275.037 91.1793 269.979 107.058 257.409C132.351 237.385 133.424 188.472 133.424 188.472L90.868 187.099Z" fill="black"/>
<path d="M118.52 186.119C118.52 186.119 97.9281 249.267 97.9281 258.091C97.9281 270.642 102.545 275.704 112.048 279.467C127.101 285.429 206.634 283.07 220.402 280.129C221.76 279.839 226.454 265.644 224.42 260.445C223.744 258.719 174.411 243.383 174.411 243.383C174.411 243.383 204.905 217.223 157.034 169.772L118.52 186.119Z" fill="#201E1E"/>
<path d="M174.411 243.383C176.105 242.139 177.452 240.248 178.633 238.046C170.759 236.07 161.161 238.482 150.136 243.537C156.922 242.325 163.525 240.95 174.411 243.383Z" fill="black"/>
<path d="M159.261 172.023C158.766 176.286 117.581 220.696 117.204 220.383C117.204 220.383 115.138 211.12 157.034 169.773L159.261 172.023Z" fill="black"/>
<path d="M222.041 262.823C222.777 262.1 227.427 262.363 234.009 258.896C253.026 248.88 261.514 267.657 270.215 271.009C277.591 273.852 284.327 271.752 288.25 273.469C291.6 274.934 291.108 276.937 291.108 276.937C292.221 277.647 293.969 279.063 293.427 280.957C295.66 281.431 297.555 284.206 296.001 285.836C298.013 286.511 298.57 288.875 298.029 290.567C301.007 291.92 300.621 295.998 296.799 297.409C290.815 299.619 279.407 296.012 261.814 289.561C237.263 280.558 220.765 281.826 219.38 279.451C217.023 275.408 217.998 266.788 222.041 262.823Z" fill="#744747"/>
<path d="M291.082 276.569L291.108 276.937C291.108 276.937 286.813 277.756 286.634 277.254C286.552 277.023 291.082 276.569 291.082 276.569Z" fill="#633B3B"/>
<path d="M293.479 280.472L293.292 280.904C293.292 280.904 289.352 281.696 289.349 281.165C289.347 280.903 293.479 280.472 293.479 280.472Z" fill="#633B3B"/>
<path d="M296.001 285.836L296.157 285.55C294.756 285.366 290.3 285.191 290.3 285.344C290.3 285.857 296.001 285.836 296.001 285.836Z" fill="#633B3B"/>
<path d="M298.029 290.567L298.099 290.197C298.099 290.197 289.995 290.614 290.3 290.777C291.414 291.374 298.029 290.567 298.029 290.567Z" fill="#633B3B"/>
<path d="M69.5687 83.602C68.166 84.6594 59.8914 130.01 64.8638 138.778C75.38 157.323 81.044 168.12 86.4861 178.416C89.0685 183.302 83.5445 184.753 85.3094 188.418C87.2216 192.389 134.437 200.773 150.469 180.328C152.641 177.559 158.265 171.981 157.235 165.62C157.235 165.62 149.909 156.444 143.997 152.382C131.41 143.732 124.337 134.658 120.831 126.992C113.678 111.35 119.964 74.5291 118.015 73.2115C117.32 72.7415 110.004 73.4167 109.363 74.8581C108.806 76.108 106.049 105.755 88.3986 109.432C74.5482 112.318 78.2078 82.2454 76.9867 81.6102C75.9844 81.0891 70.6988 82.7501 69.5687 83.602Z" fill="#B6C7FD"/>
<path d="M86.7973 179.081C87.8525 180.925 103.406 188.113 103.821 188.506C105.48 190.079 86.5731 183.204 86.5731 183.204C87.2016 181.975 87.4124 180.7 86.7973 179.081Z" fill="#A4B4EF"/>
<path d="M126.083 135.718C123.698 139.934 114.004 143.914 101.722 147.809C114.264 145.805 124.812 143.492 129.921 140.335L126.083 135.718Z" fill="#A4B4EF"/>
<path d="M77.1267 81.8821C76.8356 83.8352 70.5436 114.586 87.3813 111.937C92.6245 111.112 97.4707 104.379 97.4707 104.379C82.9879 116.532 76.7767 107.401 77.1267 81.8821Z" fill="#A4B4EF"/>
<path d="M144.046 89.4858C147.37 92.6256 150.381 137.93 145.59 178.482C144.37 188.811 97.6217 244.458 92.2437 251.351C90.7599 253.252 89.7918 263.074 70.8279 264.924C70.8279 264.924 64.5856 279.041 61.0323 278.119C59.9552 277.84 59.9888 276.132 59.9888 276.132C59.9888 276.132 58.1841 278.478 56.7071 277.932C55.2061 277.376 55.493 274.873 55.493 274.873C55.493 274.873 54.436 275.377 53.8617 274.975C50.8309 272.858 57.4712 254.012 57.4712 254.012C57.4712 254.012 50.1195 265 46.6911 262.235C46.514 262.092 54.8541 247.861 56.8059 247.027C59.9575 245.68 71.6638 244.841 79.2249 243.243C81.6599 242.729 121.492 171.988 121.672 170.209C123.943 147.869 120.831 126.992 120.831 126.992C118.938 111.898 116.059 102.851 121.493 95.9378C126.386 89.711 138.356 84.1133 144.046 89.4858Z" fill="#744747"/>
<path d="M55.493 274.873C55.493 274.873 64.1752 254.824 63.6052 255.073C62.0699 255.743 54.5745 275.125 54.5745 275.125C54.8415 275.086 55.1974 275.007 55.493 274.873Z" fill="#633B3B"/>
<path d="M66.8971 260.235C66.4299 260.017 58.9785 277.172 58.9785 277.172C59.3754 276.832 59.7239 276.487 59.9888 276.132C59.9888 276.132 67.3661 260.453 66.8971 260.235Z" fill="#633B3B"/>
<defs>
<linearGradient id="paint0_linear_296_137" x1="87.6232" y1="47.5933" x2="98.71" y2="51.3131" gradientUnits="userSpaceOnUse">
<stop offset="0.3536" stop-color="#7C3939"/>
<stop offset="0.9941" stop-color="#744747"/>
</linearGradient>
<linearGradient id="paint1_linear_296_137" x1="69.2309" y1="52.2765" x2="61.7281" y2="52.884" gradientUnits="userSpaceOnUse">
<stop offset="0.3536" stop-color="#7C3939"/>
<stop offset="0.9941" stop-color="#744747"/>
</linearGradient>
</defs>
</svg>
